<svg version="1.1" preserveAspectRatio="none" xmlns="http://www.w3.org/2000/svg" width="500" height="500" viewBox="0 0 500 500"><rect width="100%" height="100%" fill="#FBFBFB" fill-opacity="1"/><svg viewBox="114.5027 332.6667 374.6633 171" width="333" height="151.98446178208542" x="83.5px" y="174.0078px" xmlns="http://www.w3.org/2000/svg" xmlns:xlink="http://www.w3.org/1999/xlink" preserveAspectRatio="none"><defs></defs><style>.companyName {fill:#535353;fill-opacity:1;}.icon1 {fill:#F7CEC1;fill-opacity:1;}.icon3-str {stroke:#9C9C9C;stroke-opacity:1;}.shapeStroke-str {stroke:#535353;stroke-opacity:1;}.text {fill:#535353;fill-opacity:1;}</style><g opacity="1" transform="rotate(0 190.9816 475.6667)">
<svg width="221.7055" height="28" x="190.9816" y="475.6667" version="1.1" preserveAspectRatio="none" viewBox="1.92 -28.4 228.04000000000002 28.8">
  <g transform="matrix(1 0 0 1 0 0)" class="text"><path id="id-6izo4zJp9" d="M24.20-25.92Q24.80-25.56 24.80-24.92L24.80-24.92Q24.80-24.56 24.52-24.12L24.52-24.12Q24.16-23.68 23.60-23.68L23.60-23.68Q23.28-23.68 22.96-23.88L22.96-23.88Q19.76-26 15.96-26L15.96-26Q12.72-26 10.10-24.48Q7.48-22.96 5.98-20.22Q4.48-17.48 4.48-14L4.48-14Q4.48-10.44 6-7.70Q7.52-4.96 10.14-3.46Q12.76-1.96 15.96-1.96L15.96-1.96Q19.76-1.96 22.92-4.04L22.92-4.04Q23.24-4.24 23.60-4.24L23.60-4.24Q24.16-4.24 24.52-3.76L24.52-3.76Q24.80-3.44 24.80-3L24.80-3Q24.80-2.36 24.24-2.04L24.24-2.04Q22.68-1 20.40-0.30Q18.12 0.40 15.96 0.40L15.96 0.40Q12.16 0.40 8.94-1.42Q5.72-3.24 3.82-6.52Q1.92-9.80 1.92-14L1.92-14Q1.92-18.04 3.80-21.34Q5.68-24.64 8.88-26.50Q12.08-28.36 15.96-28.36L15.96-28.36Q18.20-28.36 20.34-27.72Q22.48-27.08 24.20-25.92L24.20-25.92Z M56.04-14Q56.04-9.88 54.32-6.60Q52.60-3.32 49.56-1.46Q46.52 0.40 42.64 0.40L42.64 0.40Q38.76 0.40 35.72-1.46Q32.68-3.32 30.96-6.60Q29.24-9.88 29.24-14L29.24-14Q29.24-18.16 30.96-21.44Q32.68-24.72 35.72-26.56Q38.76-28.40 42.64-28.40L42.64-28.40Q46.52-28.40 49.56-26.56Q52.60-24.72 54.32-21.44Q56.04-18.16 56.04-14L56.04-14ZM53.48-14Q53.48-17.48 52.10-20.22Q50.72-22.96 48.26-24.48Q45.80-26 42.64-26L42.64-26Q39.48-26 37.02-24.48Q34.56-22.96 33.18-20.22Q31.80-17.48 31.80-14L31.80-14Q31.80-10.52 33.18-7.78Q34.56-5.04 37.02-3.52Q39.48-2 42.64-2L42.64-2Q45.80-2 48.26-3.52Q50.72-5.04 52.10-7.78Q53.48-10.52 53.48-14L53.48-14Z M87.32-28Q87.80-28 88.14-27.66Q88.48-27.32 88.48-26.80L88.48-26.80L88.48-1.20Q88.48-0.68 88.12-0.34Q87.76 0 87.24 0L87.24 0Q86.68 0 86.32-0.34Q85.96-0.68 85.96-1.20L85.96-1.20L85.96-23.20L76.56-8.96Q76.16-8.44 75.64-8.48L75.64-8.48L75.56-8.48Q75.08-8.48 74.68-8.96L74.68-8.96L65.28-23.28L65.28-1.20Q65.28-0.68 64.94-0.34Q64.60 0 64.08 0L64.08 0Q63.56 0 63.24-0.34Q62.92-0.68 62.92-1.20L62.92-1.20L62.92-26.80Q62.92-27.28 63.26-27.64Q63.60-28 64.12-28L64.12-28Q64.40-28 64.72-27.86Q65.04-27.72 65.20-27.48L65.20-27.48L75.68-11.76L86.24-27.48Q86.68-28.08 87.32-28L87.32-28Z M107.88-28Q110.08-28 111.84-26.98Q113.60-25.96 114.58-24.14Q115.56-22.32 115.56-20.04L115.56-20.04Q115.56-17.76 114.58-15.88Q113.60-14 111.84-12.92Q110.08-11.84 107.88-11.84L107.88-11.84L99.60-11.84L99.60-1.20Q99.60-0.68 99.26-0.34Q98.92 0 98.40 0L98.40 0Q97.88 0 97.54-0.34Q97.20-0.68 97.20-1.20L97.20-1.20L97.20-26.80Q97.20-27.32 97.54-27.66Q97.88-28 98.40-28L98.40-28L107.88-28ZM107.88-14.16Q110.20-14.16 111.64-15.84Q113.08-17.52 113.08-20.04L113.08-20.04Q113.08-22.52 111.64-24.08Q110.20-25.64 107.88-25.64L107.88-25.64L99.60-25.64L99.60-14.16L107.88-14.16Z M141.52-1.60Q141.60-1.28 141.60-1.12L141.60-1.12Q141.60-0.60 141.24-0.28Q140.88 0.04 140.40 0.04L140.40 0.04Q140.00 0.04 139.70-0.18Q139.40-0.40 139.24-0.76L139.24-0.76L136.24-8.08L123.24-8.08L120.28-0.76Q119.96 0.04 119.20 0.04L119.20 0.04Q118.64 0.04 118.36-0.24Q118.08-0.52 118.04-1L118.04-1L118.04-1.12Q118.04-1.36 118.08-1.48L118.08-1.48L128.64-27.32Q128.96-28.12 129.84-28.12L129.84-28.12Q130.24-28.12 130.54-27.90Q130.84-27.68 131.00-27.32L131.00-27.32L141.52-1.60ZM129.68-24.12L124.16-10.44L135.28-10.44L129.68-24.12Z M168.20-28Q168.72-28 169.02-27.68Q169.32-27.36 169.32-26.88L169.32-26.88L169.32-1.28Q169.32-0.68 168.96-0.34Q168.60 0 168.08 0L168.08 0Q167.80 0 167.54-0.12Q167.28-0.24 167.12-0.40L167.12-0.40L149.96-23.52L149.96-1.08Q149.96-0.64 149.62-0.32Q149.28 0 148.84 0L148.84 0Q148.36 0 148.04-0.32Q147.72-0.64 147.72-1.08L147.72-1.08L147.72-26.80Q147.72-27.36 148.06-27.68Q148.40-28 148.88-28L148.88-28Q149.52-28 149.84-27.56L149.84-27.56L167.08-4.32L167.08-26.88Q167.08-27.36 167.40-27.68Q167.72-28 168.20-28L168.20-28Z M180.56-1.24Q180.52-0.72 180.16-0.36Q179.80 0 179.28 0L179.28 0Q178.72 0 178.38-0.34Q178.04-0.68 178.04-1.24L178.04-1.24L178.04-26.76Q178.04-27.32 178.40-27.66Q178.76-28 179.32-28L179.32-28Q179.84-28 180.20-27.64Q180.56-27.28 180.56-26.76L180.56-26.76L180.56-1.24Z M205.12-2.36Q205.64-2.36 205.98-2Q206.32-1.64 206.32-1.16L206.32-1.16Q206.32-0.64 205.98-0.32Q205.64 0 205.12 0L205.12 0L190.44 0Q189.92 0 189.58-0.34Q189.24-0.68 189.24-1.20L189.24-1.20L189.24-26.80Q189.24-27.32 189.58-27.66Q189.92-28 190.44-28L190.44-28L205.12-28Q205.64-28 205.98-27.66Q206.32-27.32 206.32-26.80L206.32-26.80Q206.32-26.28 205.98-25.96Q205.64-25.64 205.12-25.64L205.12-25.64L191.76-25.64L191.76-15.60L203.32-15.60Q203.84-15.60 204.18-15.26Q204.52-14.92 204.52-14.40L204.52-14.40Q204.52-13.88 204.18-13.56Q203.84-13.24 203.32-13.24L203.32-13.24L191.76-13.24L191.76-2.36L205.12-2.36Z M220.72 0.40Q217.84 0.40 215.62-0.56Q213.40-1.52 211.32-3.56L211.32-3.56Q210.84-3.96 210.84-4.52L210.84-4.52Q210.84-5 211.22-5.40Q211.60-5.80 212.08-5.80L212.08-5.80Q212.56-5.80 212.96-5.40L212.96-5.40Q216.08-1.96 220.76-1.96L220.76-1.96Q223.64-1.96 225.54-3.32Q227.44-4.68 227.44-6.88L227.44-6.88Q227.44-8.60 226.50-9.74Q225.56-10.88 224.04-11.60Q222.52-12.32 220.16-13.08L220.16-13.08Q217.60-13.84 215.86-14.76Q214.12-15.68 213.04-17.22Q211.96-18.76 211.96-21.12L211.96-21.12Q211.96-23.24 213.10-24.88Q214.24-26.52 216.30-27.46Q218.36-28.40 221.04-28.40L221.04-28.40Q223.48-28.40 225.62-27.58Q227.76-26.76 229.04-25.24L229.04-25.24Q229.64-24.56 229.64-24.08L229.64-24.08Q229.64-23.64 229.24-23.26Q228.84-22.88 228.36-22.88L228.36-22.88Q227.96-22.88 227.68-23.16L227.68-23.16Q226.60-24.44 224.80-25.24Q223.00-26.04 221.04-26.04L221.04-26.04Q218.12-26.04 216.28-24.74Q214.44-23.44 214.44-21.20L214.44-21.20Q214.44-18.88 216.20-17.64Q217.96-16.40 221.24-15.36L221.24-15.36Q224.08-14.52 225.88-13.64Q227.68-12.76 228.82-11.14Q229.96-9.52 229.96-6.88L229.96-6.88Q229.96-4.84 228.78-3.18Q227.60-1.52 225.50-0.56Q223.40 0.40 220.72 0.40L220.72 0.40Z"/></g>
</svg>
</g><g opacity="1" transform="rotate(0 114.5027 371.6667)">
<svg width="374.6633" height="80" x="114.5027" y="371.6667" version="1.1" preserveAspectRatio="none" viewBox="3.76 -28.4 134.88 28.8">
  <g transform="matrix(1 0 0 1 0 0)" class="companyName"><path id="id-D6z1nYkh7" d="M24.24-28Q24.76-28 25.06-27.68Q25.36-27.36 25.36-26.88L25.36-26.88L25.36-1.28Q25.36-0.68 25-0.34Q24.64 0 24.12 0L24.12 0Q23.84 0 23.58-0.12Q23.32-0.24 23.16-0.40L23.16-0.40L6-23.52L6-1.08Q6-0.64 5.66-0.32Q5.32 0 4.88 0L4.88 0Q4.40 0 4.08-0.32Q3.76-0.64 3.76-1.08L3.76-1.08L3.76-26.80Q3.76-27.36 4.10-27.68Q4.44-28 4.92-28L4.92-28Q5.56-28 5.88-27.56L5.88-27.56L23.12-4.32L23.12-26.88Q23.12-27.36 23.44-27.68Q23.76-28 24.24-28L24.24-28Z M57.84-14Q57.84-9.88 56.12-6.60Q54.40-3.32 51.36-1.46Q48.32 0.40 44.44 0.40L44.44 0.40Q40.56 0.40 37.52-1.46Q34.48-3.32 32.76-6.60Q31.04-9.88 31.04-14L31.04-14Q31.04-18.16 32.76-21.44Q34.48-24.72 37.52-26.56Q40.56-28.40 44.44-28.40L44.44-28.40Q48.32-28.40 51.36-26.56Q54.40-24.72 56.12-21.44Q57.84-18.16 57.84-14L57.84-14ZM55.28-14Q55.28-17.48 53.90-20.22Q52.52-22.96 50.06-24.48Q47.60-26 44.44-26L44.44-26Q41.28-26 38.82-24.48Q36.36-22.96 34.98-20.22Q33.60-17.48 33.60-14L33.60-14Q33.60-10.52 34.98-7.78Q36.36-5.04 38.82-3.52Q41.28-2 44.44-2L44.44-2Q47.60-2 50.06-3.52Q52.52-5.04 53.90-7.78Q55.28-10.52 55.28-14L55.28-14Z M84-28Q84.52-28 84.82-27.68Q85.12-27.36 85.12-26.88L85.12-26.88L85.12-1.28Q85.12-0.68 84.76-0.34Q84.40 0 83.88 0L83.88 0Q83.60 0 83.34-0.12Q83.08-0.24 82.92-0.40L82.92-0.40L65.76-23.52L65.76-1.08Q65.76-0.64 65.42-0.32Q65.08 0 64.64 0L64.64 0Q64.16 0 63.84-0.32Q63.52-0.64 63.52-1.08L63.52-1.08L63.52-26.80Q63.52-27.36 63.86-27.68Q64.20-28 64.68-28L64.68-28Q65.32-28 65.64-27.56L65.64-27.56L82.88-4.32L82.88-26.88Q82.88-27.36 83.20-27.68Q83.52-28 84-28L84-28Z M92.36-9.24Q91.84-9.24 91.52-9.58Q91.20-9.92 91.20-10.44L91.20-10.44Q91.20-10.96 91.52-11.28Q91.84-11.60 92.36-11.60L92.36-11.60L101.00-11.60Q101.52-11.60 101.86-11.24Q102.20-10.88 102.20-10.36L102.20-10.36Q102.20-9.88 101.86-9.56Q101.52-9.24 101.00-9.24L101.00-9.24L92.36-9.24Z M110.76-1.24Q110.72-0.72 110.36-0.36Q110 0 109.48 0L109.48 0Q108.92 0 108.58-0.34Q108.24-0.68 108.24-1.24L108.24-1.24L108.24-26.76Q108.24-27.32 108.60-27.66Q108.96-28 109.52-28L109.52-28Q110.04-28 110.40-27.64Q110.76-27.28 110.76-26.76L110.76-26.76L110.76-1.24Z M136.08-28Q136.60-28 136.94-27.68Q137.28-27.36 137.28-26.84L137.28-26.84Q137.28-26.32 136.94-26.02Q136.60-25.72 136.08-25.72L136.08-25.72L127.80-25.72L127.80-1.20Q127.80-0.68 127.44-0.34Q127.08 0 126.56 0L126.56 0Q126 0 125.66-0.34Q125.32-0.68 125.32-1.20L125.32-1.20L125.32-25.72L117.04-25.72Q116.52-25.72 116.18-26.04Q115.84-26.36 115.84-26.88L115.84-26.88Q115.84-27.36 116.18-27.68Q116.52-28 117.04-28L117.04-28L136.08-28Z"/></g>
</svg>
</g><g opacity="1" transform="rotate(0 241.8343 332.6667)">
<svg width="120" height="9" x="241.8343" y="332.6667" version="1.1" preserveAspectRatio="none" viewBox="0 0 120 9">
  <defs><rect x="0" y="0" width="120" height="9" rx="0%" ry="0%" id="id-80LYwx1g1718195769648"></rect></defs><use class="icon1 shapeStroke-str" style="stroke-width:0;" xlink:href="#id-80LYwx1g1718195769648"></use>
</svg>
</g></svg></svg>