<svg version="1.1" preserveAspectRatio="none" xmlns="http://www.w3.org/2000/svg" width="500" height="500" viewBox="0 0 500 500"><rect width="100%" height="100%" fill="#F5F5F5" fill-opacity="1"/><svg viewBox="506.6381 423.4316 331.8857 193.8" width="333" height="194.45067985755338" x="83.5px" y="152.7747px" xmlns="http://www.w3.org/2000/svg" xmlns:xlink="http://www.w3.org/1999/xlink" preserveAspectRatio="none"><defs></defs><style>.companyName {fill:#08376B;fill-opacity:1;}.icon1 {fill:#35C0ED;fill-opacity:1;}.icon2 {fill:#9AEBA6;fill-opacity:1;}.icon3 {fill:#2F90B0;fill-opacity:1;}.icon3-str {stroke:#2F90B0;stroke-opacity:1;}.shapeStroke-str {stroke:#08376B;stroke-opacity:1;}.text {fill:#08376B;fill-opacity:1;}</style><g opacity="1" transform="rotate(0 506.6381 438.4316)">
<svg width="111.5232" height="120" x="506.6381" y="438.4316" version="1.1" preserveAspectRatio="none" viewBox="6.436196804046631 3.747849464416504 87.12948608398438 93.75215911865234">
  <g transform="matrix(1 0 0 1 0 0)" class="icon1"><g><path d="M76.5,27.4c-3.9-4.3-8.9-6.4-14.9-6.4c-4.4,0-9.3,1.2-14.7,3.5C28,32.6,25.1,44.9,25,51.5c-0.1,11.4,7.4,21.1,14.5,24.4   c3.1,1.4,6.2,4.9,7.9,6.8c-0.4,0.4-0.7,0.9-0.9,1.3c-0.4,1.1-0.1,1.9,0.2,2.3c0.3,0.4,0.8,0.8,1.5,1c0,0,0,0,0,0   c-0.2,0.9,0,1.7,0.6,2.4c0.6,0.7,1.5,1.1,2.8,1.3c0,0.1,0,0.1,0,0.2c-0.1,0.8,0,1.5,0.5,2.1c0.7,0.8,2,1.2,3.9,1.2   c0.1,0,0.1,0,0.2,0c0,0,0,0.1,0,0.1c-0.1,0.9,0.2,1.5,0.5,1.9c0.6,0.7,1.6,1,3,1c2.2,0,5.1-0.8,6.2-1.1c3.5-1.1,8.2-2.8,8-5.9   c0-0.3-0.1-0.8-0.5-1.2c1.2-1,2-2.1,1.9-3.5c0-0.5-0.2-1.2-1-1.6c0.8-0.9,1.2-1.9,1.1-3c0-0.5-0.2-1.3-1.1-1.8   c0.6-0.7,1.1-1.4,1.1-2.2c0.1-1-0.2-1.9-0.5-2.3c-0.2-0.3-0.5-1-0.9-1c0,0,0,0,0,0c0,0,0,0.3,0,0.3c0.8-2.6,2.2-4.8,3.7-7.2   c1.1-1.8,2.2-3.6,3.1-5.6c2.5-5.3,2.8-9.2,3.2-13.3C84.2,45.3,82.9,34.5,76.5,27.4z M48.2,85.3c-0.1-0.2-0.3-1,0.8-1.7   c7.7,0,19.4-5,23.9-7.4c0,0,0.1,0,0.1,0c0.3,0.1,0.4,0.2,0.4,0.2c0,0,0.1,0.2,0.1,0.5c-0.1,0.6-0.6,1.2-1.5,1.9   c-0.9,0.7-2.2,1.4-3.6,2.1c-2.2,1-4.8,2-7.3,2.7c-2.1,0.6-5.7,1.6-8.7,1.9C49.7,85.9,48.6,85.7,48.2,85.3z M51,67   c1.6-0.5,3-1.8,4.2-3.3c0.8,0.2,1.7,0.3,2.7,0.1c1.1-0.2,2.1-0.5,3-1c0.6,1,1.6,1.7,2.8,2.1c0,0,0,0,0,0c-1.4,2.8-3.1,7.9-0.4,13   c-2,0.7-4,1.4-6.1,2c-1.1-1.9-3.7-6.5-6.5-9.5c0.1-0.2,0.2-0.5,0.2-0.8C51.1,68.9,51.1,68,51,67z M54.3,57.1c0.3-0.8,0.6-1,0.7-1   c0,0,0.1,0.1,0.3,0.3c0.8,1.1,0.5,3.1-0.6,5.2c0,0,0,0,0-0.1C53.7,60.4,53.8,58.4,54.3,57.1z M61.3,58.4c0.1-1.8,0.9-3.1,1.9-3.3   c0.1,0,0.1,0,0.2,0c0.2,0,0.5,0.1,0.6,0.7c0.2,1.2-0.6,3.3-2.5,4.8C61.4,59.8,61.3,59.1,61.3,58.4z M50,88.7   c-0.1-0.2-0.3-0.5-0.2-1.1c0,0,0,0,0,0c0.2,0,0.4,0,0.7,0c3.4,0,8.5-1.3,11.2-2.1c2.7-0.8,8-2.6,11.2-4.9c0.8,0.1,0.8,0.5,0.8,0.7   c0,0.7-0.3,1.6-1.5,2.5c-0.7,0.6-1.8,1.2-3.3,1.9c-1.6,0.7-3.7,1.5-6.4,2.2c-0.9,0.3-3.4,0.9-6,1.3c-1.1,0.2-2.2,0.3-3.2,0.3   c-0.2,0-0.3,0-0.5,0C51.4,89.4,50.5,89.1,50,88.7z M65.3,94.8c-0.8,0.2-3.6,1-5.7,1c-1.3,0-1.7-0.3-1.8-0.4c0,0-0.1-0.2-0.1-0.5   c0-0.1,0.1-0.3,0.5-0.5c2.6-0.3,5.2-1,6.1-1.3c2.4-0.7,5.1-1.5,7.3-2.7c0.5,0,0.5,0.2,0.5,0.3C72.2,91.4,71.3,92.9,65.3,94.8z    M71.7,88.7c-1.5,0.9-3.9,2-7.7,3c-1,0.3-4,1.1-6.7,1.3c-0.5,0-0.9,0.1-1.3,0.1c-1.4,0-2.4-0.3-2.8-0.7c-0.1-0.1-0.3-0.4-0.2-0.9   c0-0.1,0.1-0.2,0.1-0.3c0.1,0,0.1,0,0.2,0c3.6,0,8.3-1.2,9.6-1.6c3.4-1,7.5-2.3,10-4.2c0.8,0.1,0.8,0.5,0.8,0.7   C73.8,86.6,73.4,87.6,71.7,88.7z M81.8,48c-0.4,4.1-0.7,7.7-3,12.6c-0.9,1.9-2,3.7-3,5.5c-1.6,2.7-3.2,5.3-4,8.2c0,0.1,0,0.1,0,0.2   c-1.6,0.9-4,1.9-6.7,3c-2.5-4.5-1-9.1,0.1-11.4c0.1-0.2,0.2-0.5,0.4-0.7c2.2,0.2,3.4-0.7,4.1-1.3c1-1,1.4-2.6,1-3.7   c-0.2-0.5-0.6-0.8-1.1-0.9c-1.5-0.2-3.5,2-4.9,4.1c-0.1,0-0.3-0.1-0.4-0.1c-0.8-0.3-1.4-0.8-1.9-1.4c2.5-1.9,3.7-4.6,3.4-6.6   c-0.2-1.4-1.3-2.2-2.7-2c-1.8,0.3-3.1,2.2-3.3,4.8c-0.1,1,0.1,2.1,0.4,3.2c-0.7,0.4-1.6,0.6-2.5,0.8c-0.6,0.1-1.1,0.1-1.5,0   c1.2-2.2,1.9-5,0.5-6.9c-0.7-0.9-1.6-1.1-2.4-0.7c-1.6,0.8-2.4,4.2-1.6,6.5c0.2,0.7,0.6,1.3,1.1,1.8c-0.9,1.2-2,2.1-3,2.5   c-0.7-2.7-2.2-5.4-3.2-6.1c-0.5-0.4-1.1-0.4-1.6-0.1c-1,0.6-1,2.4-0.8,3.7c0.5,2.3,1.9,3.9,3.8,4.3c0.1,0,0.3,0,0.4,0.1   c0.1,0.7,0.1,1.4,0,2c-1.4-1.2-2.9-1.8-4.1-1.5c-1.8,0.5-2.3,1.9-2,2.9c0.4,1.5,2.2,2.7,4.7,2.1c0.7-0.2,1.3-0.5,1.8-0.9   c2.3,2.6,4.7,6.4,5.9,8.5c-0.1,0-0.2,0.1-0.3,0.1c-2.1,0.5-4.1,0.9-5.9,1c-0.1-0.1-0.1-0.1-0.2-0.2c-1.7-2-5.2-5.8-8.7-7.5   C34,70.9,27.1,62,27.2,51.5c0.1-10.5,7.4-19.3,20.5-25c5.1-2.2,9.7-3.3,13.8-3.3c5.4,0,9.8,1.9,13.3,5.7C80.9,35.5,82,45.7,81.8,48   z M66.4,63.7c1-1.4,2-2.3,2.6-2.6c0,0.5-0.2,1.2-0.7,1.8C67.8,63.4,67.2,63.7,66.4,63.7z M49,65.5c-1.3-0.3-1.9-1.5-2.1-2.2   c-0.4-1.1-0.4-2.1-0.2-2.5C47.3,61.5,48.4,63.5,49,65.5z M48.6,70.8c-0.3,0.2-0.6,0.4-1,0.5c-1.6,0.3-2.6-0.3-2.8-0.9   c-0.1-0.5,0.6-0.8,0.9-0.9c0.1,0,0.2-0.1,0.4-0.1C46.8,69.3,47.7,69.9,48.6,70.8z"></path><path d="M54.7,38.2c-0.2-0.3-0.5-0.5-0.9-0.4c-8.2,2-13.7,5.6-14,5.8c-0.3,0.2-0.4,0.6-0.3,1c2.5,6.6,5.6,7.9,7.8,7.9   c2.4,0,4.8-1.7,6.4-4.4C55.7,44.7,56.1,40.9,54.7,38.2z M47.3,50.8c-1,0-2-0.5-2.9-1.3c0.9-1.3,6.8-2.9,7.9-2.3   C50.9,49.5,49.1,50.8,47.3,50.8z"></path><path d="M36.2,44.2c0,0,0.1,0.4,0.2,0.9c0.1,0.3,0.1,0.6,0.1,0.9c0,0.3,0.1,0.7,0.1,1c0,0.3,0.1,0.7,0.1,1c0,0.3,0.1,0.7,0.1,0.9   c0,0.5,0,0.9,0,0.9l0,0c-0.1,0.6-0.7,1.1-1.3,1c-0.4-0.1-0.7-0.3-0.8-0.6c0,0-0.2-0.4-0.3-0.9c-0.1-0.3-0.1-0.6-0.2-0.9   c-0.1-0.3-0.1-0.7-0.2-1.1c0-0.4-0.1-0.8-0.1-1.1c0-0.3,0-0.7,0-0.9c0-0.6,0.1-0.9,0.1-0.9c0.1-0.6,0.8-1,1.4-0.8   C35.8,43.5,36.1,43.8,36.2,44.2L36.2,44.2z"></path><path d="M63.4,34.5c0,0,0.1,0.4,0.3,1.1c0.1,0.3,0.1,0.7,0.2,1.1c0.1,0.4,0.1,0.8,0.2,1.2c0,0.2,0,0.4,0.1,0.6c0,0.2,0,0.4,0,0.6   c0,0.4,0.1,0.8,0.1,1.1c0,0.3,0,0.6,0,0.8c0,0.2,0,0.3,0,0.3l0,0c-0.1,0.7-0.8,1.2-1.5,1.1c-0.4-0.1-0.8-0.3-1-0.7   c0,0-0.2-0.4-0.4-1c-0.1-0.3-0.2-0.7-0.2-1.1c-0.1-0.4-0.2-0.9-0.2-1.3c-0.1-0.5-0.1-0.9-0.1-1.3c0-0.4,0-0.8,0-1.1   c0-0.6,0.2-1.1,0.2-1.1c0.2-0.7,0.9-1.2,1.6-1C62.9,33.7,63.2,34,63.4,34.5L63.4,34.5z"></path></g><g><path d="M24.8,34.4c0.1-0.8,0.4-1.7,0.9-2.4c0.6-0.7,1.3-1.3,2.2-1.5c0.4-0.1,0.9-0.2,1.4-0.1c2.4,0.6,2.3,2.4,2.3,2.4   c0,0.2-0.2,0.5-0.4,0.5c-0.1,0-0.2,0-0.3-0.1c0,0-2-1.4-3.4,0.2c-0.9,1.1-0.8,2.6-0.8,2.8c0,0.2,0.4,1.6,0.4,1.6   c0.1,0.2-0.1,0.5-0.3,0.6C26.6,38.3,24.8,37.2,24.8,34.4z"></path><path d="M63.1,16.3c-0.6-0.6-1.5-0.9-2.5-1c-1-0.1-2,0.1-2.9,0.7c-0.5,0.3-0.9,0.6-1.2,1c-1.6,2.4-0.2,3.6-0.2,3.6   c0.2,0.2,0.5,0.2,0.7,0c0.1-0.1,0.2-0.2,0.2-0.3c0,0,0.7-2.7,3-2.6c1.5,0,2.5,1.2,2.6,1.4c0.1,0.2,0.8,1.5,0.8,1.5   c0.1,0.2,0.4,0.3,0.6,0.2C64.3,20.6,65,18.3,63.1,16.3z"></path><path d="M6.7,42.1c2.7,1.7,8.6,3.5,11,3.5c0,0,1.1-0.4,0.7-0.8s-7-3-9.5-3.5S6.1,41.8,6.7,42.1z"></path><path d="M13.7,17.5c1.7,3.2,6.2,8.8,8.6,10.5c0,0,1.3,0.5,1.2-0.2c-0.1-0.7-5-7.3-7.1-9.5C14.3,16.2,13.3,16.9,13.7,17.5z"></path><path d="M41.1,4.1c0,3.3,1.4,9.8,2.5,12.2c0,0,0.8,0.9,1,0.4C45.3,14,43.1,6.8,42.8,6C42.1,3.4,41.1,3.5,41.1,4.1z"></path><path d="M74.4,4.5C72.2,7,69,12.7,68.3,15.3c0,0,0,1.3,0.5,0.9c0.5-0.3,4.5-6.7,5.7-9.2C75.7,4.6,74.8,4,74.4,4.5z"></path><path d="M93,16.2c-3.1,1.8-8.5,6.6-10.2,9c0,0-0.5,1.3,0.1,1.1c0.6-0.2,7.1-5.3,9.2-7.5C94.2,16.7,93.6,15.9,93,16.2z"></path></g></g>
</svg>
</g><g opacity="1" transform="rotate(0 569.2427 594.4316)">
<svg width="206.6766" height="22.8" x="569.2427" y="594.4316" version="1.1" preserveAspectRatio="none" viewBox="1.76 -28.4 261.12 28.8">
  <g transform="matrix(1 0 0 1 0 0)" class="text"><path id="id-6izo4zJp9" d="M16.72 0.40Q12.48 0.40 9.06-1.46Q5.64-3.32 3.70-6.60Q1.76-9.88 1.76-14L1.76-14Q1.76-18.12 3.72-21.40Q5.68-24.68 9.10-26.54Q12.52-28.40 16.76-28.40L16.76-28.40Q20.20-28.40 23.04-27.20Q25.88-26 27.84-23.72L27.84-23.72L24.48-20.56Q21.44-23.84 17-23.84L17-23.84Q14.12-23.84 11.84-22.58Q9.56-21.32 8.28-19.08Q7-16.84 7-14L7-14Q7-11.16 8.28-8.92Q9.56-6.68 11.84-5.42Q14.12-4.16 17-4.16L17-4.16Q21.44-4.16 24.48-7.48L24.48-7.48L27.84-4.28Q25.88-2 23.02-0.80Q20.16 0.40 16.72 0.40L16.72 0.40Z M46.52 0.40Q42.24 0.40 38.80-1.46Q35.36-3.32 33.40-6.62Q31.44-9.92 31.44-14L31.44-14Q31.44-18.08 33.40-21.38Q35.36-24.68 38.80-26.54Q42.24-28.40 46.52-28.40L46.52-28.40Q50.80-28.40 54.24-26.54Q57.68-24.68 59.64-21.40Q61.60-18.12 61.60-14L61.60-14Q61.60-9.88 59.64-6.60Q57.68-3.32 54.24-1.46Q50.80 0.40 46.52 0.40L46.52 0.40ZM46.52-4.16Q49.32-4.16 51.56-5.42Q53.80-6.68 55.08-8.94Q56.36-11.20 56.36-14L56.36-14Q56.36-16.80 55.08-19.06Q53.80-21.32 51.56-22.58Q49.32-23.84 46.52-23.84L46.52-23.84Q43.72-23.84 41.48-22.58Q39.24-21.32 37.96-19.06Q36.68-16.80 36.68-14L36.68-14Q36.68-11.20 37.96-8.94Q39.24-6.68 41.48-5.42Q43.72-4.16 46.52-4.16L46.52-4.16Z M98.96 0L94.04 0L94-18.56L84.80-3.20L82.48-3.20L73.28-18.32L73.28 0L68.32 0L68.32-28L72.60-28L83.72-9.44L94.64-28L98.92-28L98.96 0Z M119.24-28Q122.88-28 125.58-26.80Q128.28-25.60 129.72-23.36Q131.16-21.12 131.16-18.04L131.16-18.04Q131.16-15 129.72-12.74Q128.28-10.48 125.58-9.28Q122.88-8.08 119.24-8.08L119.24-8.08L112.92-8.08L112.92 0L107.72 0L107.72-28L119.24-28ZM119.00-12.48Q122.40-12.48 124.16-13.92Q125.92-15.36 125.92-18.04L125.92-18.04Q125.92-20.72 124.16-22.16Q122.40-23.60 119.00-23.60L119.00-23.60L112.92-23.60L112.92-12.48L119.00-12.48Z M157.12 0L154.32-6.48L140.32-6.48L137.56 0L132.20 0L144.80-28L149.92-28L162.56 0L157.12 0ZM142.08-10.56L152.60-10.56L147.32-22.80L142.08-10.56Z M187.04-28L192.20-28L192.20 0L187.92 0L172.48-18.96L172.48 0L167.32 0L167.32-28L171.60-28L187.04-9.04L187.04-28Z M200.92 0L200.92-28L206.12-28L206.12 0L200.92 0Z M220.08-4.36L235.88-4.36L235.88 0L214.88 0L214.88-28L235.32-28L235.32-23.64L220.08-23.64L220.08-16.36L233.60-16.36L233.60-12.08L220.08-12.08L220.08-4.36Z M251.56 0.40Q248.32 0.40 245.30-0.52Q242.28-1.44 240.52-2.96L240.52-2.96L242.32-7Q244.04-5.64 246.54-4.78Q249.04-3.92 251.56-3.92L251.56-3.92Q254.68-3.92 256.22-4.92Q257.76-5.92 257.76-7.56L257.76-7.56Q257.76-8.76 256.90-9.54Q256.04-10.32 254.72-10.76Q253.40-11.20 251.12-11.76L251.12-11.76Q247.92-12.52 245.94-13.28Q243.96-14.04 242.54-15.66Q241.12-17.28 241.12-20.04L241.12-20.04Q241.12-22.36 242.38-24.26Q243.64-26.16 246.18-27.28Q248.72-28.40 252.40-28.40L252.40-28.40Q254.96-28.40 257.44-27.76Q259.92-27.12 261.72-25.92L261.72-25.92L260.08-21.88Q258.24-22.96 256.24-23.52Q254.24-24.08 252.36-24.08L252.36-24.08Q249.28-24.08 247.78-23.04Q246.28-22 246.28-20.28L246.28-20.28Q246.28-19.08 247.14-18.32Q248.00-17.56 249.32-17.12Q250.64-16.68 252.92-16.12L252.92-16.12Q256.04-15.40 258.04-14.62Q260.04-13.84 261.46-12.24Q262.88-10.64 262.88-7.92L262.88-7.92Q262.88-5.60 261.62-3.72Q260.36-1.84 257.80-0.72Q255.24 0.40 251.56 0.40L251.56 0.40Z"/></g>
</svg>
</g><g opacity="1" transform="rotate(0 681.1613 438.4316)">
<svg width="157.3625" height="120" x="681.1613" y="438.4316" version="1.1" preserveAspectRatio="none" viewBox="6.4 -28 36.72 28">
  <g transform="matrix(1 0 0 1 0 0)" class="companyName"><path id="id-D6z1nYkh3" d="M10.04-28L6.40-28L6.40 0L10.04 0L10.04-28Z M27.96 0L31.60 0L31.60-25.80L42.32-25.80L42.32-28L17.24-28L17.24-25.80L27.96-25.80L27.96 0Z"/></g>
</svg>
</g><g opacity="1" transform="rotate(0 648.1613 423.4316)">
<svg width="3" height="150" x="648.1613" y="423.4316" version="1.1" preserveAspectRatio="none" viewBox="0 0 3 150">
  <defs><rect x="0" y="0" width="3" height="150" rx="0px" ry="0px" id="id-tBXipXk0b1718195695970"></rect></defs><use class="companyName shapeStroke-str" style="stroke-width:0;" xlink:href="#id-tBXipXk0b1718195695970"></use>
</svg>
</g></svg></svg>